<svg xmlns="http://www.w3.org/2000/svg" viewBox="0 0 1400 280" fill="none">
  <defs>
    <linearGradient id="shieldWord" x1="100" y1="40" x2="1300" y2="240" gradientUnits="userSpaceOnUse">
      <stop offset="0" stop-color="#38BDF8"/>
      <stop offset="1" stop-color="#6366F1"/>
    </linearGradient>
  </defs>

  <!-- 10XCLAW wordmark - Direction B: Audit Shield -->
  <!-- Slightly more refined, trust-oriented geometry -->

  <!-- 1 -->
  <path d="M150 60 L185 60 L185 220 L150 220 Z" fill="url(#shieldWord)"/>
  <path d="M135 85 L167 60 L199 85 L185 108 L167 92 L149 108 Z" fill="url(#shieldWord)"/>

  <!-- 0 (shield-inspired oval) -->
  <path fill-rule="evenodd" d="
    M335 55
    C385 55 425 95 425 150
    C425 205 385 245 335 245
    C285 245 245 205 245 150
    C245 95 285 55 335 55
    Z
    M335 95
    C310 95 290 115 290 150
    C290 185 310 205 335 205
    C360 205 380 185 380 150
    C380 115 360 95 335 95
    Z" fill="url(#shieldWord)"/>

  <!-- X (balanced, like cross-verification) -->
  <path d="M475 55 L545 55 L615 140 L685 55 L755 55 L655 145 L755 235 L685 235 L615 150 L545 235 L475 235 L575 145 Z" fill="url(#shieldWord)"/>

  <!-- C (protective curve) -->
  <path fill-rule="evenodd" d="
    M945 75
    C900 55 845 55 800 85
    C755 115 725 165 735 215
    C745 265 790 295 840 295
    C880 295 920 280 945 260
    L915 215
    C895 230 865 240 840 240
    C805 240 775 220 775 185
    C775 150 805 120 840 120
    C865 120 890 128 915 145
    L945 100
    Z" transform="translate(0,-30)" fill="url(#shieldWord)"/>

  <!-- L (stable base) -->
  <path d="M995 55 L1045 55 L1045 185 L1155 185 L1155 230 L995 230 Z" fill="url(#shieldWord)"/>

  <!-- A ( peaked, stable) -->
  <path fill-rule="evenodd" d="
    M1225 235
    L1165 235
    L1235 60
    L1295 60
    L1365 235
    L1305 235
    L1295 205
    M1245 185
    L1285 185
    L1265 130
    Z" fill="url(#shieldWord)"/>

  <!-- W (dual peaks) -->
  <path d="M1405 55 L1455 55 L1490 155 L1525 55 L1575 55 L1525 235 L1475 235 L1440 155 L1405 235 L1355 235 L1305 55 L1355 55 L1390 155 L1405 55 Z" transform="translate(-110,0)" fill="url(#shieldWord)"/>
</svg>
