<svg xmlns="http://www.w3.org/2000/svg" viewBox="0 0 1720 320" fill="none">
  <!-- Icon + Wordmark lockup (domain-only generation) -->

  <defs>
    <linearGradient id="g" x1="120" y1="40" x2="1560" y2="300" gradientUnits="userSpaceOnUse">
      <stop offset="0" stop-color="#2DD4BF"/>
      <stop offset="0.55" stop-color="#22D3EE"/>
      <stop offset="1" stop-color="#38BDF8"/>
    </linearGradient>
  </defs>

  <!-- Icon (left) -->
  <g transform="translate(28,0)">
    <circle cx="160" cy="160" r="110" stroke="url(#g)" stroke-width="18"/>
    <circle cx="160" cy="160" r="86" stroke="#0B1220" stroke-opacity="0.14" stroke-width="8"/>
    <path d="M100 110h46l36 42 36-42h46l-62 72 62 72h-46l-36-42-36 42h-46l62-72z" fill="url(#g)"/>
    <path d="M220 156l12 12 30-30" stroke="#0B1220" stroke-opacity="0.35" stroke-width="10" stroke-linecap="round" stroke-linejoin="round"/>
  </g>

  <!-- Wordmark (right) -->
  <g transform="translate(350,0)" fill="url(#g)">
    <path d="M140 90h52v160h-52z"/>
    <path d="M120 120l46-50 46 50-28 26-18-20-18 20z"/>
    <path fill-rule="evenodd" d="M310 80c60 0 108 48 108 112s-48 112-108 112-108-48-108-112 48-112 108-112Zm0 52c-30 0-56 26-56 60s26 60 56 60 56-26 56-60-26-60-56-60Z"/>
    <path d="M454 90h66l66 74 66-74h66l-100 112 100 112h-66l-66-74-66 74h-66l100-112z"/>
    <path d="M872 118c-26-18-62-22-92-10-36 14-60 48-60 86 0 38 24 72 60 86 30 12 66 8 92-10l-34-44c-14 10-32 12-48 6-18-8-30-26-30-38s12-30 30-38c16-6 34-4 48 6z"/>
    <path d="M902 90h54v160h118v54H902z"/>
    <path fill-rule="evenodd" d="M1100 304h-58l78-214h74l78 214h-58l-14-40h-86l-14 40Zm44-92h50l-25-74-25 74Z"/>
    <path d="M1210 90h54l38 142 38-142h54l-62 214h-54l-44-150-44 150h-54z"/>
  </g>
</svg>
