<svg xmlns="http://www.w3.org/2000/svg" viewBox="0 0 1400 280" fill="none">
  <defs>
    <linearGradient id="execWord" x1="100" y1="40" x2="1300" y2="240" gradientUnits="userSpaceOnUse">
      <stop offset="0" stop-color="#2DD4BF"/>
      <stop offset="1" stop-color="#F59E0B"/>
    </linearGradient>
  </defs>

  <!-- 10XCLAW wordmark - Direction A: Execution Engine -->
  <!-- Geometric, industrial, all paths (no text) -->

  <!-- 1 -->
  <path d="M140 60 L190 60 L190 220 L140 220 Z" fill="url(#execWord)"/>
  <path d="M120 80 L165 50 L210 80 L195 110 L165 85 L135 110 Z" fill="url(#execWord)"/>

  <!-- 0 -->
  <path fill-rule="evenodd" d="
    M340 50
    C395 50 440 95 440 150
    C440 205 395 250 340 250
    C285 250 240 205 240 150
    C240 95 285 50 340 50
    Z
    M340 95
    C310 95 285 120 285 150
    C285 180 310 205 340 205
    C370 205 395 180 395 150
    C395 120 370 95 340 95
    Z" fill="url(#execWord)"/>

  <!-- X -->
  <path d="M480 50 L560 50 L640 140 L720 50 L800 50 L680 150 L800 250 L720 250 L640 160 L560 250 L480 250 L600 150 Z" fill="url(#execWord)"/>

  <!-- C -->
  <path fill-rule="evenodd" d="
    M980 70
    C930 50 870 50 820 82
    C772 113 740 168 752 220
    C764 274 814 310 870 310
    C918 310 960 294 988 274
    L950 226
    C928 242 900 250 872 250
    C836 250 804 226 804 188
    C804 146 838 110 880 110
    C908 110 934 118 956 132
    L990 82
    Z" transform="translate(0,-30)" fill="url(#execWord)"/>

  <!-- L -->
  <path d="M1010 50 L1070 50 L1070 190 L1190 190 L1190 240 L1010 240 Z" fill="url(#execWord)"/>

  <!-- A -->
  <path fill-rule="evenodd" d="
    M1235 240
    L1170 240
    L1248 60
    L1320 60
    L1398 240
    L1333 240
    L1318 204
    L1250 204
    Z
    M1267 155
    L1301 155
    L1284 108
    Z" fill="url(#execWord)"/>

  <!-- W -->
  <path d="M1400 50 L1460 50 L1500 188 L1540 50 L1600 50 L1538 240 L1478 240 L1430 112 L1382 240 L1322 240 L1260 50 L1320 50 L1360 188 L1400 50 Z" transform="translate(-120,0)" fill="url(#execWord)"/>
</svg>
