<svg xmlns="http://www.w3.org/2000/svg" viewBox="0 0 1400 320" fill="none">
  <g fill="#0B1220">
    <path d="M150 70 L210 70 L210 250 L150 250 Z"/>
    <path d="M130 95 L180 60 L230 95 L210 125 L180 100 L150 125 Z"/>
    <path fill-rule="evenodd" d="
      M320 60
      C380 60 430 110 430 160
      C430 210 380 260 320 260
      C260 260 210 210 210 160
      C210 110 260 60 320 60
      Z
      M320 110
      C288 110 262 136 262 160
      C262 184 288 210 320 210
      C352 210 378 184 378 160
      C378 136 352 110 320 110
      Z"/>
    <path d="M470 60 L545 60 L620 145 L695 60 L770 60 L660 160 L770 260 L695 260 L620 175 L545 260 L470 260 L580 160 Z"/>
    <path fill-rule="evenodd" d="
      M930 80
      C880 60 820 60 770 92
      C722 123 690 178 702 230
      C714 284 764 320 820 320
      C868 320 910 304 938 284
      L900 236
      C878 252 850 260 822 260
      C786 260 754 236 754 198
      C754 156 788 120 830 120
      C858 120 884 128 906 142
      L940 92
      Z" transform="translate(0,-40)"/>
    <path d="M960 70 L1020 70 L1020 200 L1125 200 L1125 250 L960 250 Z"/>
    <path fill-rule="evenodd" d="
      M1185 250
      L1120 250
      L1198 70
      L1270 70
      L1348 250
      L1283 250
      L1268 214
      L1200 214
      Z
      M1217 165
      L1251 165
      L1234 118
      Z"/>
    <path d="M1350 70 L1410 70 L1450 198 L1490 70 L1550 70 L1488 250 L1428 250 L1380 122 L1332 250 L1272 250 L1210 70 L1270 70 L1310 198 L1350 70 Z" transform="translate(-120,0)"/>
  </g>
</svg>
