<svg xmlns="http://www.w3.org/2000/svg" viewBox="0 0 1400 320" fill="none">
  <defs>
    <linearGradient id="g" x1="140" y1="70" x2="1260" y2="250" gradientUnits="userSpaceOnUse">
      <stop offset="0" stop-color="#2DD4BF"/>
      <stop offset="0.55" stop-color="#22D3EE"/>
      <stop offset="1" stop-color="#38BDF8"/>
    </linearGradient>
  </defs>

  <!-- Geometric path-only wordmark (no system fonts): 10XCLAW -->
  <g fill="url(#g)">
    <!-- metrics -->
    <!-- baseline y: 250; cap y: 80 -->

    <!-- 1 -->
    <path d="M140 90h52v160h-52z"/>
    <path d="M120 120l46-50 46 50-28 26-18-20-18 20z"/>

    <!-- 0 (outer - inner via evenodd) -->
    <path fill-rule="evenodd" d="M310 80c60 0 108 48 108 112s-48 112-108 112-108-48-108-112 48-112 108-112Zm0 52c-30 0-56 26-56 60s26 60 56 60 56-26 56-60-26-60-56-60Z"/>

    <!-- X -->
    <path d="M454 90h66l66 74 66-74h66l-100 112 100 112h-66l-66-74-66 74h-66l100-112z"/>

    <!-- C -->
    <path d="M872 118c-26-18-62-22-92-10-36 14-60 48-60 86 0 38 24 72 60 86 30 12 66 8 92-10l-34-44c-14 10-32 12-48 6-18-8-30-26-30-38s12-30 30-38c16-6 34-4 48 6z"/>

    <!-- L -->
    <path d="M902 90h54v160h118v54H902z"/>

    <!-- A (outer and inner counter) -->
    <path fill-rule="evenodd" d="M1100 304h-58l78-214h74l78 214h-58l-14-40h-86l-14 40Zm44-92h50l-25-74-25 74Z"/>

    <!-- W -->
    <path d="M1280 90h54l38 142 38-142h54l-62 214h-54l-44-150-44 150h-54z" transform="translate(-70,0)"/>
  </g>
</svg>
